<?xml version="1.0" encoding="UTF-8" standalone="no"?>
<!-- Created with Inkscape (http://www.inkscape.org/) -->

<svg
   xmlns:dc="http://purl.org/dc/elements/1.1/"
   xmlns:cc="http://creativecommons.org/ns#"
   xmlns:rdf="http://www.w3.org/1999/02/22-rdf-syntax-ns#"
   xmlns:svg="http://www.w3.org/2000/svg"
   xmlns="http://www.w3.org/2000/svg"
   xmlns:sodipodi="http://sodipodi.sourceforge.net/DTD/sodipodi-0.dtd"
   xmlns:inkscape="http://www.inkscape.org/namespaces/inkscape"
   width="501.55267"
   height="499.99997"
   id="svg2"
   version="1.1"
   inkscape:version="0.48.0 r9654"
   sodipodi:docname="Морской бой ИСХОДНИК.svg">
  <defs
     id="defs4">
    <symbol
       id="spire">
      <circle
         id="circle3448"
         style="fill:#808080;stroke:#000000"
         r="10"
         cy="17"
         cx="75"
         d="M 85,17 C 85,22.522847 80.522847,27 75,27 69.477153,27 65,22.522847 65,17 65,11.477153 69.477153,7 75,7 c 5.522847,0 10,4.477153 10,10 z"
         sodipodi:cx="75"
         sodipodi:cy="17"
         sodipodi:rx="10"
         sodipodi:ry="10" />
      <path
         id="path3450"
         d="M 40,56 A 32,28 0 1 1 80,26 l -7,1 A 24.5,22.5 0 1 0 40,50 l 0,6"
         style="fill:#f3f0e7;stroke:#000000"
         inkscape:connector-curvature="0" />
    </symbol>
    <pattern
       patternUnits="userSpaceOnUse"
       fill="white"
       height="20"
       width="20"
       y="0"
       x="0"
       id="grid">
      <line
         id="line3443"
         stroke="#00FFFF"
         y2="0"
         x2="20"
         y1="0"
         x1="0" />
      <line
         id="line3445"
         stroke="#00FFFF"
         y2="20"
         x2="0"
         y1="0"
         x1="0" />
    </pattern>
    <pattern
       patternUnits="userSpaceOnUse"
       width="20.5"
       height="20.5"
       patternTransform="translate(531.40625,271.625)"
       id="pattern4372">
      <line
         style="stroke:#ae83ff;stroke-opacity:1"
         id="line3598"
         y2="0.48684692"
         x2="20.50592"
         y1="0.48684692"
         x1="0.50592041" />
      <line
         style="stroke:#ae83ff;stroke-opacity:1"
         id="line3600"
         y2="20.486847"
         x2="0.50592041"
         y1="0.48684692"
         x1="0.50592041" />
    </pattern>
  </defs>
  <sodipodi:namedview
     id="base"
     pagecolor="#ffffff"
     bordercolor="#666666"
     borderopacity="1.0"
     inkscape:pageopacity="0.0"
     inkscape:pageshadow="2"
     inkscape:zoom="0.7"
     inkscape:cx="403.7577"
     inkscape:cy="200.55734"
     inkscape:document-units="px"
     inkscape:current-layer="layer1"
     showgrid="false"
     inkscape:object-paths="true"
     inkscape:snap-intersection-paths="true"
     inkscape:object-nodes="true"
     inkscape:snap-smooth-nodes="true"
     inkscape:snap-global="false"
     fit-margin-top="0"
     fit-margin-left="0"
     fit-margin-right="0"
     fit-margin-bottom="0"
     inkscape:window-width="1280"
     inkscape:window-height="911"
     inkscape:window-x="-4"
     inkscape:window-y="-4"
     inkscape:window-maximized="1">
    <inkscape:grid
       type="xygrid"
       id="grid5094"
       empspacing="5"
       visible="true"
       enabled="true"
       snapvisiblegridlinesonly="true" />
  </sodipodi:namedview>
  <metadata
     id="metadata7">
    <rdf:RDF>
      <cc:Work
         rdf:about="">
        <dc:format>image/svg+xml</dc:format>
        <dc:type
           rdf:resource="http://purl.org/dc/dcmitype/StillImage" />
        <dc:title></dc:title>
      </cc:Work>
    </rdf:RDF>
  </metadata>
  <g
     inkscape:label="Layer 1"
     inkscape:groupmode="layer"
     id="layer1"
     transform="translate(-2080.049,321.9235)">
    <g
       id="g6451">
      <rect
         y="-321.92349"
         x="2080.0491"
         height="499.99997"
         width="501.55267"
         id="rect5190"
         style="fill:#ffffff;stroke:none" />
      <path
         style="fill:none;stroke:#b200ff;stroke-width:0.5;stroke-linecap:square;stroke-miterlimit:4;stroke-opacity:1;stroke-dasharray:none"
         d="m 2083.3131,-301.93549 493.3572,0"
         id="path5126"
         inkscape:connector-curvature="0" />
      <path
         inkscape:connector-curvature="0"
         id="path5128"
         d="m 2083.3131,-263.60017 493.3572,0"
         style="fill:none;stroke:#b200ff;stroke-width:0.5;stroke-linecap:square;stroke-miterlimit:4;stroke-opacity:1;stroke-dasharray:none" />
      <path
         style="fill:none;stroke:#b200ff;stroke-width:0.5;stroke-linecap:square;stroke-miterlimit:4;stroke-opacity:1;stroke-dasharray:none"
         d="m 2083.3131,-225.26483 493.3572,0"
         id="path5130"
         inkscape:connector-curvature="0" />
      <path
         inkscape:connector-curvature="0"
         id="path5132"
         d="m 2083.3131,-186.92951 493.3572,0"
         style="fill:none;stroke:#b200ff;stroke-width:0.5;stroke-linecap:square;stroke-miterlimit:4;stroke-opacity:1;stroke-dasharray:none" />
      <path
         style="fill:none;stroke:#b200ff;stroke-width:0.5;stroke-linecap:square;stroke-miterlimit:4;stroke-opacity:1;stroke-dasharray:none"
         d="m 2083.3131,-148.59418 493.3572,0"
         id="path5134"
         inkscape:connector-curvature="0" />
      <path
         style="fill:none;stroke:#b200ff;stroke-width:0.5;stroke-linecap:square;stroke-miterlimit:4;stroke-opacity:1;stroke-dasharray:none"
         d="m 2083.3131,-110.25883 493.3572,0"
         id="path5136"
         inkscape:connector-curvature="0" />
      <path
         inkscape:connector-curvature="0"
         id="path5138"
         d="m 2083.3131,-71.923505 493.3572,0"
         style="fill:none;stroke:#b200ff;stroke-width:0.5;stroke-linecap:square;stroke-miterlimit:4;stroke-opacity:1;stroke-dasharray:none" />
      <path
         style="fill:none;stroke:#b200ff;stroke-width:0.5;stroke-linecap:square;stroke-miterlimit:4;stroke-opacity:1;stroke-dasharray:none"
         d="m 2083.3131,-33.588179 493.3572,0"
         id="path5140"
         inkscape:connector-curvature="0" />
      <path
         inkscape:connector-curvature="0"
         id="path5142"
         d="m 2083.3131,4.7471587 493.3572,0"
         style="fill:none;stroke:#b200ff;stroke-width:0.5;stroke-linecap:square;stroke-miterlimit:4;stroke-opacity:1;stroke-dasharray:none" />
      <path
         style="fill:none;stroke:#b200ff;stroke-width:0.5;stroke-linecap:square;stroke-miterlimit:4;stroke-opacity:1;stroke-dasharray:none"
         d="m 2083.3131,43.082485 493.3572,0"
         id="path5144"
         inkscape:connector-curvature="0" />
      <path
         inkscape:connector-curvature="0"
         id="path5146"
         d="m 2083.3131,81.417811 493.3572,0"
         style="fill:none;stroke:#b200ff;stroke-width:0.5;stroke-linecap:square;stroke-miterlimit:4;stroke-opacity:1;stroke-dasharray:none" />
      <path
         style="fill:none;stroke:#b200ff;stroke-width:0.5;stroke-linecap:square;stroke-miterlimit:4;stroke-opacity:1;stroke-dasharray:none"
         d="m 2083.3131,119.75314 493.3572,0"
         id="path5148"
         inkscape:connector-curvature="0" />
      <path
         inkscape:connector-curvature="0"
         id="path5184"
         d="m 2083.3131,158.08847 493.3572,0"
         style="fill:none;stroke:#b200ff;stroke-width:0.5;stroke-linecap:square;stroke-miterlimit:4;stroke-opacity:1;stroke-dasharray:none" />
      <path
         inkscape:connector-curvature="0"
         id="path5100"
         d="m 2099.9788,173.08941 0,-490.02584"
         style="fill:none;stroke:#b200ff;stroke-width:0.5;stroke-linecap:square;stroke-miterlimit:4;stroke-opacity:1;stroke-dasharray:none" />
      <path
         style="fill:none;stroke:#b200ff;stroke-width:0.5;stroke-linecap:square;stroke-miterlimit:4;stroke-opacity:1;stroke-dasharray:none"
         d="m 2138.3143,173.08941 0,-490.02584"
         id="path5102"
         inkscape:connector-curvature="0" />
      <path
         inkscape:connector-curvature="0"
         id="path5104"
         d="m 2176.6498,173.08941 0,-490.02584"
         style="fill:none;stroke:#b200ff;stroke-width:0.5;stroke-linecap:square;stroke-miterlimit:4;stroke-opacity:1;stroke-dasharray:none" />
      <path
         style="fill:none;stroke:#b200ff;stroke-width:0.5;stroke-linecap:square;stroke-miterlimit:4;stroke-opacity:1;stroke-dasharray:none"
         d="m 2214.9852,173.08941 0,-490.02584"
         id="path5106"
         inkscape:connector-curvature="0" />
      <path
         inkscape:connector-curvature="0"
         id="path5108"
         d="m 2253.3207,173.08941 0,-490.02584"
         style="fill:none;stroke:#b200ff;stroke-width:0.5;stroke-linecap:square;stroke-miterlimit:4;stroke-opacity:1;stroke-dasharray:none" />
      <path
         inkscape:connector-curvature="0"
         id="path5110"
         d="m 2291.6562,173.08941 0,-490.02584"
         style="fill:none;stroke:#b200ff;stroke-width:0.5;stroke-linecap:square;stroke-miterlimit:4;stroke-opacity:1;stroke-dasharray:none" />
      <path
         style="fill:none;stroke:#b200ff;stroke-width:0.5;stroke-linecap:square;stroke-miterlimit:4;stroke-opacity:1;stroke-dasharray:none"
         d="m 2329.9917,173.08941 0,-490.02584"
         id="path5112"
         inkscape:connector-curvature="0" />
      <path
         inkscape:connector-curvature="0"
         id="path5114"
         d="m 2368.3272,173.08941 0,-490.02584"
         style="fill:none;stroke:#b200ff;stroke-width:0.5;stroke-linecap:square;stroke-miterlimit:4;stroke-opacity:1;stroke-dasharray:none" />
      <path
         style="fill:none;stroke:#b200ff;stroke-width:0.5;stroke-linecap:square;stroke-miterlimit:4;stroke-opacity:1;stroke-dasharray:none"
         d="m 2406.6627,173.08941 0,-490.02584"
         id="path5116"
         inkscape:connector-curvature="0" />
      <path
         inkscape:connector-curvature="0"
         id="path5118"
         d="m 2444.9982,173.08941 0,-490.02584"
         style="fill:none;stroke:#b200ff;stroke-width:0.5;stroke-linecap:square;stroke-miterlimit:4;stroke-opacity:1;stroke-dasharray:none" />
      <path
         style="fill:none;stroke:#b200ff;stroke-width:0.5;stroke-linecap:square;stroke-miterlimit:4;stroke-opacity:1;stroke-dasharray:none"
         d="m 2483.3336,173.08941 0,-490.02584"
         id="path5120"
         inkscape:connector-curvature="0" />
      <path
         inkscape:connector-curvature="0"
         id="path5122"
         d="m 2521.6691,173.08941 0,-490.02584"
         style="fill:none;stroke:#b200ff;stroke-width:0.5;stroke-linecap:square;stroke-miterlimit:4;stroke-opacity:1;stroke-dasharray:none" />
      <path
         inkscape:connector-curvature="0"
         id="path5165"
         d="m 2560.0045,173.08941 0,-490.02584"
         style="fill:none;stroke:#b200ff;stroke-width:0.5;stroke-linecap:square;stroke-miterlimit:4;stroke-opacity:1;stroke-dasharray:none" />
      <g
         id="g6416">
        <rect
           style="fill:none;stroke:#6f00ff;stroke-width:2.91666627;stroke-linejoin:round;stroke-miterlimit:4;stroke-opacity:1;stroke-dasharray:none"
           id="rect5192"
           width="383.33325"
           height="383.33328"
           x="2138.325"
           y="-263.59015" />
        <rect
           style="fill:none;stroke:#6f00ff;stroke-width:4.66666603;stroke-linecap:square;stroke-linejoin:round;stroke-miterlimit:4;stroke-opacity:1;stroke-dasharray:none;stroke-dashoffset:0"
           id="rect5228"
           width="76.666557"
           height="38.333328"
           x="2138.325"
           y="-263.59015" />
        <rect
           style="fill:none;stroke:#6f00ff;stroke-width:4.66666603;stroke-linecap:square;stroke-linejoin:round;stroke-miterlimit:4;stroke-opacity:1;stroke-dasharray:none;stroke-dashoffset:0"
           id="rect5230"
           width="38.333397"
           height="114.99998"
           x="2253.325"
           y="-263.59015" />
        <rect
           style="fill:none;stroke:#6f00ff;stroke-width:4.66666603;stroke-linecap:square;stroke-linejoin:round;stroke-miterlimit:4;stroke-opacity:1;stroke-dasharray:none;stroke-dashoffset:0"
           id="rect5232"
           width="153.33334"
           height="38.333328"
           x="2368.325"
           y="-263.59015" />
        <rect
           style="fill:none;stroke:#6f00ff;stroke-width:4.66666603;stroke-linecap:square;stroke-linejoin:round;stroke-miterlimit:4;stroke-opacity:1;stroke-dasharray:none;stroke-dashoffset:0"
           id="rect5234"
           width="38.333279"
           height="76.666664"
           x="2483.3252"
           y="-186.92351" />
        <rect
           style="fill:none;stroke:#6f00ff;stroke-width:4.66666603;stroke-linecap:square;stroke-linejoin:round;stroke-miterlimit:4;stroke-opacity:1;stroke-dasharray:none;stroke-dashoffset:0"
           id="rect5238"
           width="38.333279"
           height="114.99998"
           x="2176.6584"
           y="-110.25682" />
        <rect
           style="fill:none;stroke:#6f00ff;stroke-width:4.66666603;stroke-linecap:square;stroke-linejoin:round;stroke-miterlimit:4;stroke-opacity:1;stroke-dasharray:none;stroke-dashoffset:0"
           id="rect5240"
           width="38.333523"
           height="38.333328"
           x="2253.325"
           y="43.076481" />
        <rect
           y="43.076481"
           x="2444.9917"
           height="76.666664"
           width="38.333279"
           id="rect5242"
           style="fill:none;stroke:#6f00ff;stroke-width:4.66666603;stroke-linecap:square;stroke-linejoin:round;stroke-miterlimit:4;stroke-opacity:1;stroke-dasharray:none;stroke-dashoffset:0" />
        <rect
           y="-81.409805"
           x="2329.9912"
           height="38.333324"
           width="38.333523"
           id="rect5244"
           style="fill:none;stroke:#6f00ff;stroke-width:4.66666603;stroke-linecap:square;stroke-linejoin:round;stroke-miterlimit:4;stroke-opacity:1;stroke-dasharray:none;stroke-dashoffset:0"
           transform="scale(1,-1)" />
        <rect
           transform="scale(1,-1)"
           style="fill:none;stroke:#6f00ff;stroke-width:4.66666603;stroke-linecap:square;stroke-linejoin:round;stroke-miterlimit:4;stroke-opacity:1;stroke-dasharray:none;stroke-dashoffset:0"
           id="rect5246"
           width="38.333523"
           height="38.333324"
           x="2368.3247"
           y="33.590179" />
        <rect
           y="-119.74314"
           x="2138.325"
           height="38.333324"
           width="38.333523"
           id="rect5248"
           style="fill:none;stroke:#6f00ff;stroke-width:4.66666603;stroke-linecap:square;stroke-linejoin:round;stroke-miterlimit:4;stroke-opacity:1;stroke-dasharray:none;stroke-dashoffset:0"
           transform="scale(1,-1)" />
        <path
           sodipodi:type="arc"
           style="fill:#e74560;fill-opacity:1;stroke:none"
           id="path5250"
           sodipodi:cx="1940.5031"
           sodipodi:cy="-296.19147"
           sodipodi:rx="18.182745"
           sodipodi:ry="18.182745"
           d="m 1958.6858,-296.19147 a 18.182745,18.182745 0 1 1 -36.3655,0 18.182745,18.182745 0 1 1 36.3655,0 z"
           transform="matrix(0.19249016,0,0,0.19249016,2015.604,43.784805)" />
        <path
           transform="matrix(0.19249016,0,0,0.19249016,2052.1379,79.72939)"
           d="m 1958.6858,-296.19147 a 18.182745,18.182745 0 1 1 -36.3655,0 18.182745,18.182745 0 1 1 36.3655,0 z"
           sodipodi:ry="18.182745"
           sodipodi:rx="18.182745"
           sodipodi:cy="-296.19147"
           sodipodi:cx="1940.5031"
           id="path5252"
           style="fill:#e74560;fill-opacity:1;stroke:none"
           sodipodi:type="arc" />
        <path
           sodipodi:type="arc"
           style="fill:#e74560;fill-opacity:1;stroke:none"
           id="path5254"
           sodipodi:cx="1940.5031"
           sodipodi:cy="-296.19147"
           sodipodi:rx="18.182745"
           sodipodi:ry="18.182745"
           d="m 1958.6858,-296.19147 a 18.182745,18.182745 0 1 1 -36.3655,0 18.182745,18.182745 0 1 1 36.3655,0 z"
           transform="matrix(0.19249016,0,0,0.19249016,1975.5347,3.1261725)" />
        <path
           transform="matrix(0.19249016,0,0,0.19249016,2091.0287,80.31865)"
           d="m 1958.6858,-296.19147 a 18.182745,18.182745 0 1 1 -36.3655,0 18.182745,18.182745 0 1 1 36.3655,0 z"
           sodipodi:ry="18.182745"
           sodipodi:rx="18.182745"
           sodipodi:cy="-296.19147"
           sodipodi:cx="1940.5031"
           id="path5256"
           style="fill:#e74560;fill-opacity:1;stroke:none"
           sodipodi:type="arc" />
        <path
           sodipodi:type="arc"
           style="fill:#e74560;fill-opacity:1;stroke:none"
           id="path5258"
           sodipodi:cx="1940.5031"
           sodipodi:cy="-296.19147"
           sodipodi:rx="18.182745"
           sodipodi:ry="18.182745"
           d="m 1958.6858,-296.19147 a 18.182745,18.182745 0 1 1 -36.3655,0 18.182745,18.182745 0 1 1 36.3655,0 z"
           transform="matrix(0.19249016,0,0,0.19249016,2130.5088,79.729395)" />
        <path
           transform="matrix(0.19249016,0,0,0.19249016,2130.5088,120.38803)"
           d="m 1958.6858,-296.19147 a 18.182745,18.182745 0 1 1 -36.3655,0 18.182745,18.182745 0 1 1 36.3655,0 z"
           sodipodi:ry="18.182745"
           sodipodi:rx="18.182745"
           sodipodi:cy="-296.19147"
           sodipodi:cx="1940.5031"
           id="path5260"
           style="fill:#e74560;fill-opacity:1;stroke:none"
           sodipodi:type="arc" />
        <path
           sodipodi:type="arc"
           style="fill:#e74560;fill-opacity:1;stroke:none"
           id="path5262"
           sodipodi:cx="1940.5031"
           sodipodi:cy="-296.19147"
           sodipodi:rx="18.182745"
           sodipodi:ry="18.182745"
           d="m 1958.6858,-296.19147 a 18.182745,18.182745 0 1 1 -36.3655,0 18.182745,18.182745 0 1 1 36.3655,0 z"
           transform="matrix(0.19249016,0,0,0.19249016,2052.7271,116.8525)" />
        <path
           transform="matrix(0.19249016,0,0,0.19249016,1936.0546,-35.764695)"
           d="m 1958.6858,-296.19147 a 18.182745,18.182745 0 1 1 -36.3655,0 18.182745,18.182745 0 1 1 36.3655,0 z"
           sodipodi:ry="18.182745"
           sodipodi:rx="18.182745"
           sodipodi:cy="-296.19147"
           sodipodi:cx="1940.5031"
           id="path5264"
           style="fill:#e74560;fill-opacity:1;stroke:none"
           sodipodi:type="arc" />
        <path
           style="fill:none;stroke:#e74560;stroke-width:3.49999952;stroke-linecap:round;stroke-miterlimit:4;stroke-opacity:1;stroke-dasharray:none"
           d="M 2444.9916,81.409805 2483.325,43.07648"
           id="path5266"
           inkscape:connector-curvature="0" />
        <path
           style="fill:none;stroke:#e74560;stroke-width:3.49999952;stroke-linecap:round;stroke-linejoin:round;stroke-miterlimit:4;stroke-opacity:1;stroke-dasharray:none;stroke-dashoffset:0"
           d="m 2444.9917,43.07648 38.3333,38.333325"
           id="path5268"
           inkscape:connector-curvature="0" />
        <path
           sodipodi:type="arc"
           style="fill:#e74560;fill-opacity:1;stroke:none"
           id="path5274"
           sodipodi:cx="1940.5031"
           sodipodi:cy="-296.19147"
           sodipodi:rx="18.182745"
           sodipodi:ry="18.182745"
           d="m 1958.6858,-296.19147 a 18.182745,18.182745 0 1 1 -36.3655,0 18.182745,18.182745 0 1 1 36.3655,0 z"
           transform="matrix(0.19249016,0,0,0.19249016,1898.6179,-73.603934)" />
        <path
           transform="matrix(0.19249016,0,0,0.19249016,1860.9055,-108.37001)"
           d="m 1958.6858,-296.19147 a 18.182745,18.182745 0 1 1 -36.3655,0 18.182745,18.182745 0 1 1 36.3655,0 z"
           sodipodi:ry="18.182745"
           sodipodi:rx="18.182745"
           sodipodi:cy="-296.19147"
           sodipodi:cx="1940.5031"
           id="path5276"
           style="fill:#e74560;fill-opacity:1;stroke:none"
           sodipodi:type="arc" />
        <path
           sodipodi:type="arc"
           style="fill:#e74560;fill-opacity:1;stroke:none"
           id="path5278"
           sodipodi:cx="1940.5031"
           sodipodi:cy="-296.19147"
           sodipodi:rx="18.182745"
           sodipodi:ry="18.182745"
           d="m 1958.6858,-296.19147 a 18.182745,18.182745 0 1 1 -36.3655,0 18.182745,18.182745 0 1 1 36.3655,0 z"
           transform="matrix(0.19249016,0,0,0.19249016,1822.6039,-150.20716)" />
        <path
           transform="matrix(0.19249016,0,0,0.19249016,1785.4808,-149.6179)"
           d="m 1958.6858,-296.19147 a 18.182745,18.182745 0 1 1 -36.3655,0 18.182745,18.182745 0 1 1 36.3655,0 z"
           sodipodi:ry="18.182745"
           sodipodi:rx="18.182745"
           sodipodi:cy="-296.19147"
           sodipodi:cx="1940.5031"
           id="path5280"
           style="fill:#e74560;fill-opacity:1;stroke:none"
           sodipodi:type="arc" />
        <path
           sodipodi:type="arc"
           style="fill:#e74560;fill-opacity:1;stroke:none"
           id="path5282"
           sodipodi:cx="1940.5031"
           sodipodi:cy="-296.19147"
           sodipodi:rx="18.182745"
           sodipodi:ry="18.182745"
           d="m 1958.6858,-296.19147 a 18.182745,18.182745 0 1 1 -36.3655,0 18.182745,18.182745 0 1 1 36.3655,0 z"
           transform="matrix(0.19249016,0,0,0.19249016,1859.1377,-151.38567)" />
        <path
           transform="matrix(0.19249016,0,0,0.19249016,1860.3162,-183.79473)"
           d="m 1958.6858,-296.19147 a 18.182745,18.182745 0 1 1 -36.3655,0 18.182745,18.182745 0 1 1 36.3655,0 z"
           sodipodi:ry="18.182745"
           sodipodi:rx="18.182745"
           sodipodi:cy="-296.19147"
           sodipodi:cx="1940.5031"
           id="path5284"
           style="fill:#e74560;fill-opacity:1;stroke:none"
           sodipodi:type="arc" />
        <path
           inkscape:connector-curvature="0"
           id="path5286"
           d="m 2138.325,-225.25682 38.3334,-38.33333"
           style="fill:none;stroke:#e74560;stroke-width:3.49999952;stroke-linecap:round;stroke-miterlimit:4;stroke-opacity:1;stroke-dasharray:none" />
        <path
           inkscape:connector-curvature="0"
           id="path5288"
           d="m 2138.3252,-263.59015 38.3332,38.33333"
           style="fill:none;stroke:#e74560;stroke-width:3.49999952;stroke-linecap:round;stroke-linejoin:round;stroke-miterlimit:4;stroke-opacity:1;stroke-dasharray:none;stroke-dashoffset:0" />
        <path
           style="fill:none;stroke:#e74560;stroke-width:3.49999952;stroke-linecap:round;stroke-miterlimit:4;stroke-opacity:1;stroke-dasharray:none"
           d="m 2176.6582,-225.25682 38.3334,-38.33333"
           id="path5290"
           inkscape:connector-curvature="0" />
        <path
           style="fill:none;stroke:#e74560;stroke-width:3.49999952;stroke-linecap:round;stroke-linejoin:round;stroke-miterlimit:4;stroke-opacity:1;stroke-dasharray:none;stroke-dashoffset:0"
           d="m 2176.6583,-263.59015 38.3333,38.33333"
           id="path5292"
           inkscape:connector-curvature="0" />
        <path
           inkscape:connector-curvature="0"
           style="font-size:10px;font-style:normal;font-variant:normal;font-weight:normal;font-stretch:normal;line-height:125%;letter-spacing:0px;word-spacing:0px;fill:#6f00ff;fill-opacity:1;stroke:none;font-family:TramTicket;-inkscape-font-specification:TramTicket"
           d="m 2117.3928,-257.236 c -0.324,0.12475 -0.9726,1.24402 -1.9688,3.3125 -1.7445,0.8221 -2.625,1.60237 -2.625,2.375 l 0,0.65625 c 0,0.0753 0.1386,0.28287 0.4375,0.65625 l 0.25,0 c 1.8936,2e-5 2.8125,-0.64777 2.8125,-1.96875 l 0.1875,0 c 0,0.99701 0.1009,1.88362 0.25,2.65625 l -0.4375,4.125 0.4375,3.5 c -0.1491,0.7719 -0.25,1.21289 -0.25,1.3125 0,0.22435 0.1009,1.38131 0.25,3.5 -0.1491,2.8655 -0.25,4.7658 -0.25,5.6875 0.1211,0.186 0.2383,0.28058 0.3438,0.40625 l -0.25,0.15625 0.1562,0.28125 0.2813,-0.125 -0.125,-0.21875 c 0.1912,0.21155 0.3637,0.34375 0.5,0.34375 1.5947,-0.19925 2.4062,-0.70917 2.4062,-1.53125 -0.5726,-4.63512 -0.875,-8.63562 -0.875,-12 0,-0.72244 0.063,-1.57165 0.1875,-2.59375 -0.1247,-0.54829 -0.1875,-1.36596 -0.1875,-2.4375 l 0,-2.40625 -0.2187,-1.0625 c 0.1498,2e-5 0.2187,-0.10016 0.2187,-0.25 0,-0.44866 -0.069,-0.95858 -0.2187,-1.53125 0.1498,-0.57338 0.2187,-1.15224 0.2187,-1.75 l 0,-0.625 c 0,-0.24941 -0.1386,-0.41853 -0.4375,-0.46875 l -1.0937,0 z m -1.2813,15.90625 c 0,0.19926 0.1132,0.28126 0.3125,0.28125 l 0,-0.28125 -0.3125,0 z m -2,9.875 -0.3125,0.125 c 0,0.19925 0.1133,0.3125 0.3125,0.3125 l 0.2813,-0.15625 c -1e-4,-0.17491 -0.082,-0.25691 -0.2813,-0.28125 z m 2.625,12.875 c -3.3895,3e-5 -5.0938,2.66677 -5.0937,8 0.2243,0.42361 0.4319,0.62502 0.6562,0.625 l 1.5625,0 c 0.2989,2e-5 0.4375,-0.1317 0.4375,-0.40625 l 0,-2.46875 c 0,-1.04716 0.1386,-1.86483 0.4375,-2.4375 0.5734,0.14908 1.1523,0.21877 1.75,0.21875 1.6449,2e-5 2.4687,1.19515 2.4688,3.5625 -1e-4,1.0472 -0.1387,1.86488 -0.4375,2.4375 -1.0221,1.74456 -1.6072,2.97737 -1.7813,3.75 -0.2989,1e-5 -0.9779,0.74875 -2,2.21875 -0.2494,1.3704 -1.0671,3.21947 -2.4375,5.5625 -0.4487,2.99021 -0.7949,4.62632 -1.0937,4.875 l 0,0.21875 c -1e-4,0.29887 0.1386,0.4375 0.4375,0.4375 l 0.4375,-0.21875 0,0.21875 c 1.7939,-0.19924 2.8512,-0.33788 3.125,-0.4375 0.2494,0.14982 0.5259,0.21875 0.875,0.21875 l 4.6562,0 c 0.4487,-0.22434 0.6562,-0.43191 0.6563,-0.65625 -1e-4,-0.52321 -0.2076,-1.40982 -0.6563,-2.65625 l -1.125,0.21875 c -0.4487,0 -1.3353,-0.16988 -2.6562,-0.46875 -0.2487,0 -0.4186,0.16989 -0.4688,0.46875 l 0,0.21875 0.4688,0.6875 -1.0938,0 c 0,-0.59773 -0.1386,-0.90625 -0.4375,-0.90625 l -0.2187,0 c -0.3735,0.29887 -0.613,0.4375 -0.6875,0.4375 l -0.4375,-0.21875 0,-0.6875 c 4.7347,-8.34855 7.0937,-12.9279 7.0937,-13.75 l 0,-0.65625 -0.2187,-0.40625 c 0.149,2e-5 0.2187,-0.10017 0.2187,-0.25 l 0,-0.4375 -0.2187,-1.5625 -0.2188,0 -0.4687,0.21875 -0.2188,-0.4375 0,-0.25 0.9063,-1.53125 -0.2188,-1.5625 c -0.6228,-0.99696 -1.6793,-1.71369 -3.125,-2.1875 l -0.875,0 z m -1.8125,38.53125 c -2.0936,0.94682 -3.1563,2.71465 -3.1562,5.28125 0.1992,0.54833 0.4006,0.81252 0.625,0.8125 l 0.8437,0 c 0.4487,2e-5 0.8515,-0.69825 1.25,-2.09375 0,-0.32394 0.6983,-0.59429 2.0938,-0.84375 0.4235,0.32399 0.6562,0.5254 0.6562,0.625 0.324,2e-5 0.5943,-0.0635 0.8438,-0.1875 l 0.4062,0.1875 -0.1875,1.0625 0,0.21875 c 0,0.57266 0.064,1.13921 0.1875,1.6875 -0.124,0.54833 -0.1875,1.11412 -0.1875,1.6875 l 0,1.03125 c -0.4244,2e-5 -0.625,0.30161 -0.625,0.875 -1.4198,0.4236 -2.125,1.12187 -2.125,2.09375 l 0.2188,0.84375 c 1.1217,0.27379 2.0213,0.90312 2.7187,1.875 l -0.1875,0.4375 0,0.65625 c 0,0.27454 0.1637,0.40626 0.4375,0.40625 0,0.37341 -0.1637,0.77623 -0.4375,1.25 l 0,0.1875 c 0.6974,0.54755 1.0625,0.98163 1.0625,1.28125 -0.5734,1e-5 -0.875,0.43408 -0.875,1.28125 0,2.36738 -0.8997,3.53125 -2.7187,3.53125 l -0.2188,0 -1.875,-2.09375 c 0,-0.22434 0.1317,-0.35605 0.4063,-0.40625 -1e-4,-0.77188 -0.3332,-1.53984 -1.0313,-2.3125 -0.7476,0.3734 -1.1816,0.80748 -1.2812,1.28125 -1e-4,4.06173 1.4654,6.09375 4.4062,6.09375 2.94,-0.59774 4.4062,-1.93149 4.4063,-4 l 0,-1.0625 -0.1875,-0.40625 c 0.1239,1e-5 0.1874,-0.0689 0.1875,-0.21875 l 0,-2.3125 -0.1875,-1.0625 c 0.1239,1e-5 0.1874,-0.0697 0.1875,-0.21875 -1e-4,-0.37415 -0.1325,-0.77006 -0.4063,-1.21875 0.1741,1e-5 0.3066,-0.30235 0.4063,-0.875 -1e-4,-1.71943 -0.5981,-2.68805 -1.8438,-2.9375 1.3955,-1.54528 2.0937,-2.74656 2.0938,-3.59375 -0.1499,-1.42056 -0.2501,-2.5529 -0.25,-3.375 l 0,-2.09375 c -1e-4,-1.66923 -1.2336,-2.80157 -3.75,-3.375 l -1.9063,0 z m 3.375,38.65625 c -0.3993,3e-5 -1.1229,1.89342 -2.2187,5.65625 -2.4176,6.57893 -4.0025,11.23414 -4.75,14 -1e-4,0.64794 0.1386,1.2642 0.4375,1.8125 l 2.2812,-0.21875 c 0.2243,1e-5 1.1179,0.0697 2.6875,0.21875 l 0.6875,-0.46875 0.2188,0 0,1.59375 c -1e-4,0.64793 0.1386,1.2391 0.4375,1.8125 -0.1,0 -0.3769,0.51608 -0.875,1.5625 -1e-4,0.14982 0.07,0.38863 0.2187,0.6875 l 1.125,-0.21875 1.1563,0 0.4375,0.21875 c 0.2996,-0.49811 0.4374,-0.9445 0.4375,-1.34375 l 0,-0.6875 c -0.3993,-0.74831 -0.6758,-1.13191 -0.875,-1.15625 l 0.2187,-1.5625 0,-0.65625 c 0.5483,1e-5 0.9954,-0.16911 1.3438,-0.46875 -0.2989,-0.37339 -0.4376,-0.65065 -0.4375,-0.875 l -0.4688,0 -0.4375,0.21875 c 0,-0.34905 -0.069,-0.65681 -0.2187,-0.90625 0.1498,-0.82207 0.2187,-1.51418 0.2187,-2.0625 l 0,-3.59375 c 0,-0.39848 -0.3139,-0.61296 -0.9375,-0.6875 0.2996,-0.67301 0.6135,-1.05046 0.9375,-1.125 0,-1.49585 -0.1379,-2.62743 -0.4375,-3.375 0.1498,2e-5 0.2187,-0.0697 0.2188,-0.21875 l 0,-0.25 -0.2188,-0.46875 0.2188,0 -0.2188,-1.5625 0,-1.125 -0.7187,0 0,0.4375 c -0.2495,2e-5 -0.4194,-0.13861 -0.4688,-0.4375 l 0,-0.21875 c 0.9217,2e-5 1.4062,-0.51606 1.4063,-1.5625 -1e-4,-0.17413 -0.069,-0.4191 -0.2188,-0.71875 0.2996,2e-5 0.4375,-0.51605 0.4375,-1.5625 l 0,-0.21875 c 0,-0.24941 -0.1379,-0.41853 -0.4375,-0.46875 l -1.1875,0 z m -0.4375,5.1875 c 0,0.14984 0.069,0.38865 0.2188,0.6875 l -0.2188,0 -0.4375,-0.21875 c 0,-0.24866 0.1386,-0.41854 0.4375,-0.46875 z m -0.4375,2.46875 0.4375,1.40625 0,0.65625 -0.2187,0 0,-0.21875 c -0.7476,-0.57262 -1.1251,-0.95007 -1.125,-1.125 l 0.9062,-0.71875 z m -0.9062,1.625 0.2187,0 c 0.5985,0.72247 0.9759,1.99345 1.125,3.8125 l -0.2187,0 c -1e-4,0.34907 0.07,0.66374 0.2187,0.9375 l -0.4375,0.875 c 0,0.14907 0.069,0.38788 0.2188,0.6875 l -0.2188,0 c 0,0.34831 0.069,0.65682 0.2188,0.90625 -1e-4,0.17416 -0.069,0.38173 -0.2188,0.65625 l 0.2188,1.125 -0.6875,1.15625 c -0.1499,1e-5 -0.2188,-0.0689 -0.2188,-0.21875 -1.6198,0.0996 -2.5892,0.33845 -2.9375,0.6875 0,-0.34905 -0.069,-0.65757 -0.2187,-0.90625 0.2745,1e-5 0.8656,-1.58487 1.8125,-4.75 l -0.2188,-1.15625 c 0.6981,1e-5 1.1445,-1.27096 1.3438,-3.8125 z m -2.5625,29.34375 c -0.9476,0.37418 -1.4376,0.68885 -1.4375,0.9375 l 0,0.28125 c -1e-4,0.34909 0.075,0.6325 0.25,0.90625 -0.175,0.2738 -0.2501,0.58846 -0.25,0.9375 l 0.25,1.15625 c -0.175,2e-5 -0.2501,0.10712 -0.25,0.28125 l 0.25,1.40625 0,1.40625 0.4687,0.6875 0,0.28125 c -0.2989,0.29889 -0.5438,1.38767 -0.7187,3.28125 0.1749,1.71946 0.4198,2.56251 0.7187,2.5625 l 0.4688,0 c 1.5201,-1.71943 2.3944,-2.56248 2.5937,-2.5625 2.0434,2e-5 3.0625,2.81155 3.0625,8.46875 0,0.997 -0.245,2.89038 -0.7187,5.65625 l -0.4688,0 c -0.5726,-0.44868 -1.9761,-1.1531 -4.2187,-2.125 -0.5484,-1.37038 -0.9632,-2.1445 -1.1875,-2.34375 l -0.6875,0 c -0.2738,1e-5 -0.4499,0.14479 -0.5,0.46875 l 0,2.09375 c 1.346,1.66926 2.8558,2.61941 4.5,2.84375 l 1.625,0 c 2.1932,-0.62283 3.3124,-2.20156 3.3125,-4.71875 -0.1499,-0.59773 -0.2501,-1.22706 -0.25,-1.875 l 0,-0.46875 0.25,-1.65625 c -0.1499,1e-5 -0.2501,-0.0689 -0.25,-0.21875 l 0.25,0 -0.25,-1.1875 0.25,-1.65625 -0.25,-0.46875 c 0.1498,1e-5 0.2499,-0.10017 0.25,-0.25 l 0,-1.40625 c -1e-4,-1.34528 -0.9495,-2.50299 -2.8438,-3.5 -1.47,2e-5 -2.7287,0.21374 -3.75,0.6875 0,-1.04716 0.07,-2.38092 0.2188,-4 -1e-4,-1.19621 -0.3906,-2.04542 -1.1875,-2.59375 l 0.5,0 c 0.3239,2e-5 0.4687,-0.41483 0.4687,-1.1875 0.7719,0.29889 1.4012,0.46877 1.875,0.46875 1.2457,-0.47299 2.1958,-0.71873 2.8438,-0.71875 0.2996,0.17417 0.5133,0.25002 0.6875,0.25 0.2988,2e-5 0.4687,-0.14476 0.4687,-0.46875 0,-0.29884 -0.2457,-0.43747 -0.7187,-0.4375 l 0.25,-0.5 c -1e-4,-0.27451 -0.1448,-0.45054 -0.4688,-0.5 l -0.5,0 0,0.5 0.2813,0.5 -2.625,0 0,-0.28125 c 1.2707,3e-5 1.9062,-0.13861 1.9062,-0.4375 l -0.25,-0.5 -1.6562,0.21875 -0.9375,0 -1.625,-0.21875 z m 1.8437,0.9375 0.5,0 0,0.28125 -0.5,0 0,-0.28125 z m -3.2812,18.84375 c -0.2487,1e-5 -0.3874,0.17604 -0.4375,0.5 l 0.2187,0.4375 c 0.473,-0.22434 0.7187,-0.46315 0.7188,-0.6875 l 0,-0.25 -0.5,0 z m 4,18.8125 c -2.4176,3e-5 -4.0025,1.06883 -4.75,3.1875 -1e-4,0.14908 0.069,0.35664 0.2187,0.65625 -0.2243,2e-5 -0.4319,0.75492 -0.6562,2.25 -1e-4,0.34832 0.069,0.65683 0.2187,0.90625 -0.1498,0.22436 -0.2884,1.05511 -0.4375,2.5 0,0.24945 0.1386,0.62614 0.4375,1.125 -0.1498,2e-5 -0.2188,0.0697 -0.2187,0.21875 l 0,2.03125 c -1e-4,0.64794 -0.07,1.47869 -0.2188,2.5 l 0.4375,2.25 -0.2187,0.4375 c -1e-4,3.4389 0.2765,5.40122 0.875,5.875 0.8715,1.81907 2.5573,2.71875 5,2.71875 2.8654,0 4.2812,-2.862 4.2812,-8.59375 -0.2989,-0.79697 -0.5064,-1.92932 -0.6562,-3.375 -1e-4,-2.31717 -0.7611,-3.80186 -2.2813,-4.5 l -2.0312,0 c -0.9719,0.0996 -1.9406,0.54602 -2.9375,1.34375 l 0,-1.59375 -0.25,-1.5625 0.5,-0.21875 -0.25,-1.59375 c -1e-4,-0.57338 0.3835,-2.01963 1.1562,-4.3125 l 0.4375,0 -0.2187,0.5 c -1e-4,0.29965 0.1386,0.43752 0.4375,0.4375 l 1.8125,0 0.4375,-0.21875 c 0.8973,0.22437 1.3437,0.43193 1.3437,0.65625 0,0.62286 -0.069,1.44669 -0.2187,2.46875 -1e-4,0.29889 0.1447,0.46877 0.4687,0.46875 l 1.3438,0 c 0.2988,2e-5 0.4687,-0.16986 0.4687,-0.46875 0,-0.29961 -0.3775,-0.43748 -1.125,-0.4375 l 0,-0.4375 c 0.7475,2e-5 1.125,-0.16986 1.125,-0.46875 l 0,-0.90625 c 0,-1.6198 -0.9309,-2.89617 -2.75,-3.84375 l -1.7812,0 z m -0.4375,1.125 0.2187,0 0,0.46875 c -0.1491,3e-5 -0.3886,0.0697 -0.6875,0.21875 l 0,-0.21875 c 0,-0.24941 0.1699,-0.41853 0.4688,-0.46875 z m 0.6562,12.1875 c 0.9711,10e-6 1.6571,0.45331 2.0313,1.375 l 0,2.25 0.2187,0.4375 c -0.1498,10e-6 -0.2188,0.10095 -0.2187,0.25 l 0,1.375 0.2187,0.4375 c -0.2,2.99021 -1.0928,4.5 -2.6875,4.5 -1.8191,0 -2.7188,-2.03202 -2.7187,-6.09375 0.1749,-0.24943 0.2499,-0.62688 0.25,-1.125 l 0,-1.78125 c 0.7475,-1.0715 1.71,-1.62499 2.9062,-1.625 z m -1.9062,25.3125 c -0.2495,0.14984 -0.558,0.25003 -0.9063,0.25 l -1.5625,0 c -0.2989,3e-5 -0.5384,0.5161 -0.6875,1.5625 0.2989,1.02211 0.746,1.61328 1.3438,1.8125 l 0.6875,0 c 0.2988,2e-5 0.4374,-0.14476 0.4375,-0.46875 0.1749,2e-5 0.4137,0.0759 0.6875,0.25 1.9688,-0.1247 3.0761,-0.43936 3.375,-0.9375 l 0.25,0 c 0.2988,2e-5 0.4374,0.16991 0.4375,0.46875 l 0,0.46875 c -0.2989,1.71947 -0.6764,3.36789 -1.125,4.9375 0.149,0.24946 0.2187,0.6269 0.2187,1.125 -0.4487,2e-5 -0.6563,0.13789 -0.6562,0.4375 l 0,0.28125 0.6562,0.875 c -0.7476,2e-5 -1.125,0.47841 -1.125,1.375 l 0,0.4375 0.25,0.4375 c -0.2494,1e-5 -0.4883,0.75491 -0.6875,2.25 l 0.2188,0.4375 c -0.1499,1e-5 -0.5273,1.37732 -1.125,4.09375 l 0.25,0.4375 c -0.1491,10e-6 -0.2501,0.0697 -0.25,0.21875 l 0,2.75 -0.2188,2.6875 1.3438,0.4375 1.5625,-0.4375 -0.2188,-2.25 0,-0.21875 c 0,-6.0306 0.6852,-11.23314 2.0313,-15.59375 l -0.2188,-0.4375 c 0.2989,2e-5 0.6763,-1.13232 1.125,-3.375 0,-0.47376 -0.101,-0.99523 -0.25,-1.59375 l 0.25,-1.375 c 0,-0.74753 -0.2388,-1.19391 -0.6875,-1.34375 l -0.4375,0 -0.4687,0.25 0,-0.25 c -0.4982,3e-5 -1.7691,0.10021 -3.8125,0.25 -0.175,3e-5 -0.3887,-0.10016 -0.6875,-0.25 z m 3.1875,38.5625 c -0.6229,0.47381 -1.0508,0.71878 -1.25,0.71875 l -0.2188,-0.5 c -0.1742,3e-5 -0.426,0.10713 -0.75,0.28125 l -2.1562,-0.28125 -0.25,0 c -1.445,0.54833 -2.1876,1.61789 -2.1875,3.1875 l 0.5,3.875 c -0.175,2e-5 -0.2813,0.1002 -0.2813,0.25 0,0.0996 0.1063,0.42046 0.2813,0.96875 l 0,0.75 -0.2813,0 0,-0.5 -0.4687,0 0,0.71875 c -1e-4,0.59775 0.3208,1.41619 0.9687,2.4375 l 0.4688,-0.25 0.2812,0 -0.2812,0.5 0.75,1.1875 -0.25,0 0.25,0.5 0,0.25 c -0.5986,10e-6 -1.2402,0.96247 -1.9375,2.90625 -1e-4,0.32397 0.176,0.50001 0.5,0.5 -0.324,0.82209 -0.5001,2.2814 -0.5,4.375 l 0,0.46875 c -1e-4,0.47302 0.4968,1.53643 1.4687,3.15625 1.7689,0.49811 2.6562,0.89478 2.6563,1.21875 1.4205,0 2.559,-0.25189 3.4062,-0.75 l -0.25,-0.46875 c 1.2958,-0.72246 2.3585,-1.54013 3.1563,-2.4375 -1e-4,-0.14981 -0.069,-0.39554 -0.2188,-0.71875 0.1498,-0.27453 0.2187,-0.59535 0.2188,-0.96875 l 0,-1.4375 -0.2188,-0.5 c 0.1498,10e-6 0.2187,-0.0751 0.2188,-0.25 -1e-4,-2.09283 -0.1761,-3.55215 -0.5,-4.375 -1e-4,-0.0745 -0.3898,-1.03698 -1.1875,-2.90625 l 0,-0.25 c 0.6479,-0.87226 1.1447,-1.9795 1.4687,-3.375 0,-5.50738 -1.1385,-8.28122 -3.4062,-8.28125 z m -4.1563,0.5 0.2813,0 0,0.46875 -0.2813,0 0,-0.46875 z m 1.7188,3.125 2.1875,0.28125 c 0.3239,-0.17413 0.5445,-0.28123 0.7187,-0.28125 l 0.25,0.5 0,3.40625 c -0.3742,2.26701 -1.4376,3.37502 -3.1562,3.375 l -0.4688,0 c -1.0723,-0.97112 -1.6442,-1.43748 -1.7187,-1.4375 l 0,0.46875 -0.25,0 c -0.648,-0.24942 -0.9688,-0.78396 -0.9688,-1.65625 l 0.2188,0 1,1.1875 0,-0.21875 c -1e-4,-0.77263 -0.101,-1.59031 -0.25,-2.4375 0.149,-2.11792 0.9667,-3.18748 2.4375,-3.1875 z m 2.6562,9.71875 c 0.3491,2.39248 0.6699,4.10292 0.9688,5.125 l -0.2188,0 c 0,0.17416 0.069,0.41989 0.2188,0.71875 -1e-4,1.99399 -0.6417,3.52915 -1.9375,4.625 -1.2959,0 -2.5792,-0.71749 -3.875,-2.1875 -1e-4,-0.34906 0.075,-0.70113 0.25,-1 l -0.25,-0.46875 0.25,0 c -1e-4,-0.67302 -0.075,-1.56039 -0.25,-2.65625 -1e-4,-1.07151 0.2511,-2.28509 0.75,-3.65625 0.473,0.27455 0.6874,0.52567 0.6875,0.75 0.4988,-0.24943 0.7499,-0.50055 0.75,-0.75 0.3482,10e-6 0.6698,0.0751 0.9687,0.25 l 1.6875,-0.75 z m 2.2188,2.4375 0,1.71875 -0.2813,0 -0.2187,-1.46875 0.5,-0.25 z m -5.0938,22.875 c -1.3704,0.22437 -2.0625,0.6769 -2.0625,1.375 -0.8228,3e-5 -1.4514,2.23346 -1.875,6.71875 0.2243,4.78496 1.4064,7.18751 3.5,7.1875 1.3453,1e-5 2.6355,-0.38359 3.9063,-1.15625 0.3239,1.02134 0.5689,2.34894 0.7187,3.96875 -0.2244,3.08984 -0.539,4.625 -0.9375,4.625 0,1.5453 -1.0819,2.3125 -3.25,2.3125 0,-0.17415 -0.3078,-0.38787 -0.9062,-0.6875 -0.648,-1.69435 -1.1074,-2.5625 -1.4063,-2.5625 l -0.2187,0 c -0.3742,0.29887 -0.613,0.46875 -0.6875,0.46875 -1e-4,1.84417 0.7679,3.30964 2.3125,4.40625 0.7977,0 1.489,-0.0689 2.0625,-0.21875 1.7939,0 3.2601,-1.95002 4.4062,-5.8125 0,-0.34829 -0.07,-0.66296 -0.2187,-0.9375 0.149,-1.17113 0.2876,-1.9391 0.4375,-2.3125 -0.2989,-0.82283 -0.4376,-1.65897 -0.4375,-2.53125 l 0.2187,-1.375 -0.2187,-0.5 0.2187,-1.15625 c 0,-0.1498 -0.07,-0.38862 -0.2187,-0.6875 0.149,-0.27376 0.2187,-0.58842 0.2187,-0.9375 l 0,-0.21875 -0.2187,-0.46875 c 0.149,2e-5 0.2187,-0.0697 0.2187,-0.21875 l 0,-0.9375 c 0,-1.0715 -0.2083,-2.32325 -0.6562,-3.71875 -1e-4,-2.1932 -1.1821,-3.72761 -3.5,-4.625 l -1.4063,0 z m 0.7188,1.875 0.2187,0 c 0.9225,0.44871 1.6897,1.04064 2.3125,1.8125 l 0,0.71875 c 0,1.52022 0.07,3.37005 0.2188,5.5625 -0.1491,0.24945 -0.2188,0.55721 -0.2188,0.90625 0.149,2e-5 0.2187,0.0759 0.2188,0.25 -0.2989,2.31796 -0.8909,3.50001 -1.8125,3.5 l -0.5,-0.28125 -0.4375,0.28125 c -0.6974,-0.29962 -1.3267,-0.68322 -1.875,-1.15625 -0.5735,-2.64189 -0.9571,-3.96873 -1.1563,-3.96875 0.324,-1.0715 0.4687,-2.00934 0.4688,-2.78125 l 0,-0.6875 -0.2188,-1.1875 c 0.1491,2e-5 0.2187,-0.20754 0.2188,-0.65625 l 0,-0.9375 c 1.1711,-0.92168 2.0392,-1.37498 2.5625,-1.375 z m 0.2187,22 0,0.46875 0.2188,0 0,-0.46875 -0.2188,0 z m -5.3125,12.40625 c -0.324,0.12475 -0.9725,1.21277 -1.9687,3.28125 -1.7446,0.8221 -2.6251,1.63362 -2.625,2.40625 l 0,0.625 c -1e-4,0.0753 0.1386,0.28287 0.4375,0.65625 l 0.25,0 c 1.8935,2e-5 2.8124,-0.64777 2.8125,-1.96875 l 0.1875,0 c -1e-4,0.99701 0.1009,1.88362 0.25,2.65625 l -0.4375,4.15625 0.4375,3.46875 c -0.1491,0.7719 -0.2501,1.21289 -0.25,1.3125 -1e-4,0.22435 0.1009,1.38131 0.25,3.5 -0.1491,2.8655 -0.2501,4.7658 -0.25,5.6875 0.123,0.18891 0.2369,0.31083 0.3437,0.4375 l -0.25,0.125 0.1563,0.3125 0.2812,-0.15625 -0.094,-0.15625 c 0.1794,0.19162 0.339,0.3125 0.4687,0.3125 1.5947,-0.19925 2.4062,-0.70917 2.4063,-1.53125 -0.5727,-4.63512 -0.8751,-8.63562 -0.875,-12 -1e-4,-0.72244 0.063,-1.6029 0.1875,-2.625 -0.1248,-0.54829 -0.1876,-1.36597 -0.1875,-2.4375 l 0,-2.375 -0.2188,-1.09375 c 0.1498,2e-5 0.2187,-0.0689 0.2188,-0.21875 -1e-4,-0.44866 -0.069,-0.95858 -0.2188,-1.53125 0.1498,-0.57338 0.2187,-1.15224 0.2188,-1.75 l 0,-0.65625 c -1e-4,-0.24941 -0.1387,-0.38728 -0.4375,-0.4375 l -1.0938,0 z m 9.8438,0 c -2.4176,3e-5 -3.9205,1.92495 -4.4688,5.8125 0,0.79776 0.069,1.98673 0.2188,3.53125 l -0.2188,1.625 0.2188,0.46875 -0.2188,0 c 0,0.17493 0.069,0.4199 0.2188,0.71875 0.1741,4.85948 0.2812,8.04922 0.2812,9.59375 l 0,0.4375 c 0.6981,2.39171 1.7111,3.89535 3.0313,4.46875 l 0.4375,0 c 1.8684,0 2.8124,-0.17604 2.8125,-0.5 1.8692,0 2.7812,-3.32145 2.7812,-10 l 0,-0.5 0.2813,-1.65625 c -0.1993,1e-5 -0.3753,-0.31465 -0.5,-0.9375 0.1498,1e-5 0.2187,-0.0697 0.2187,-0.21875 l 0,-4.21875 c 0,-5.75682 -1.5413,-8.62497 -4.6562,-8.625 l -0.4375,0 z m -0.9375,1.875 0.4375,0 c -1e-4,0.2487 0.176,0.56337 0.5,0.9375 0.6228,-0.37413 0.9062,-0.6888 0.9062,-0.9375 0.8472,0.69738 1.5454,1.71032 2.0938,3.03125 l -0.2188,0 0.2188,1.625 0,3.28125 0.25,0.46875 c -0.1491,2e-5 -0.2501,0.0697 -0.25,0.21875 l 0,0.25 c -1e-4,1.32021 0.176,2.33314 0.5,3.03125 -0.175,0.27379 -0.2501,0.58845 -0.25,0.9375 l 0,3.03125 -0.25,1.40625 c 0.149,0.24944 0.2499,0.6643 0.25,1.1875 l 0,0.21875 c -1e-4,0.997 -0.3147,2.22365 -0.9375,3.71875 -0.1491,0 -0.3879,-0.0689 -0.6875,-0.21875 l -1.4063,0.21875 c -0.2989,-0.14981 -0.5446,-0.21875 -0.7187,-0.21875 l 0,0.5 -0.2188,0 c -0.9217,-0.47378 -1.375,-1.73168 -1.375,-3.75 l 0,-5.15625 -0.2812,-1.65625 c 0.1749,1e-5 0.2812,-0.13862 0.2812,-0.4375 0,-1.24565 -0.176,-3.52264 -0.5,-6.8125 0.1491,-0.27375 0.2187,-0.58842 0.2188,-0.9375 -0.1491,2e-5 -0.2188,-0.0697 -0.2188,-0.21875 0.1491,2e-5 0.2187,-0.31388 0.2188,-0.9375 -1e-4,-0.67224 0.4906,-1.58499 1.4375,-2.78125 z m -2.8125,2.09375 0.2187,0 0,0.46875 -0.2187,0 0,-0.46875 z m -7.375,11.90625 c -1e-4,0.19926 0.1132,0.31251 0.3125,0.3125 l 0,-0.3125 -0.3125,0 z m -2,9.875 -0.3125,0.15625 c -1e-4,0.19925 0.1132,0.28125 0.3125,0.28125 l 0.2812,-0.125 c 0,-0.17491 -0.082,-0.28816 -0.2812,-0.3125 z"
           id="flowRoot5294" />
        <path
           inkscape:connector-curvature="0"
           style="font-size:10px;font-style:normal;font-variant:normal;font-weight:normal;font-stretch:normal;line-height:125%;letter-spacing:0px;word-spacing:0px;fill:#6f00ff;fill-opacity:1;stroke:none;font-family:TramTicket;-inkscape-font-specification:TramTicket"
           d="m 2157.7053,-298.486 c -1.2959,3e-5 -1.9376,0.30778 -1.9375,0.90625 -0.4982,3.61307 -1.0839,7.16103 -1.7813,10.625 -0.8974,6.82761 -1.96,11.65885 -3.1562,14.5 -1e-4,0.19925 0.1132,0.28125 0.3125,0.28125 l 1.9375,0 0.2812,-0.125 c 0.1992,-1.34605 0.5636,-2.85584 1.0625,-4.5 2.9902,10e-6 4.5,-0.30775 4.5,-0.90625 l 0.125,0 c 0.1992,1.07152 0.6202,2.44268 1.2188,4.0625 l -0.1563,1.03125 0.4375,0.59375 c 1.3955,-0.0996 2.1504,-0.18163 2.25,-0.28125 l 0,-0.3125 c -0.7978,-2.0936 -1.2441,-3.68463 -1.3437,-4.78125 -0.3986,-1.81906 -0.7071,-3.58074 -0.9063,-5.25 0,-2.19321 -0.4464,-3.28124 -1.3437,-3.28125 0.1498,-0.79697 0.345,-1.18748 0.5937,-1.1875 0,-0.74754 -0.2773,-1.81018 -0.875,-3.15625 l 0.125,-0.28125 c -0.5232,-2.19321 -0.8571,-3.28123 -1.0312,-3.28125 l -0.1563,0 c -0.1993,2e-5 -0.3125,0.13789 -0.3125,0.4375 l -0.125,0 c -0.1742,2e-5 -0.2874,-0.11323 -0.3125,-0.3125 0.6981,-0.37414 1.0625,-0.82052 1.0625,-1.34375 l 0,-0.75 c 0,-0.17489 -0.1125,-0.25613 -0.3125,-0.28125 l 0.1563,-0.75 0,-1.1875 -0.3125,-0.46875 z m 34.0625,0 c -0.8967,0.37418 -1.3438,0.68193 -1.3438,0.90625 0,0.39852 0.057,0.78903 0.1563,1.1875 l -0.1563,0.75 c 0,0.29889 0.057,0.66403 0.1563,1.0625 l -0.1563,0.59375 c 0.1992,1.12173 0.2813,1.90124 0.2813,2.375 l 0,0.46875 0.3125,0.4375 c -0.3985,1.61984 -0.5938,3.01638 -0.5938,4.1875 l 0,0.15625 0.1563,0.28125 -0.1563,0 c 0,0.67304 0.057,1.2893 0.1563,1.8125 0,0.0745 -0.057,0.38229 -0.1563,0.90625 0.2243,2.76588 0.4196,4.24442 0.5938,4.46875 0,0.0996 -0.057,0.23826 -0.1563,0.4375 l 0.1563,0.3125 c -0.1248,0.44869 -0.32,0.70057 -0.5938,0.75 0,2.74154 0.1953,4.44582 0.5938,5.09375 2.5917,0.0996 4.3221,0.125 5.2187,0.125 l 0.4688,0 c 2.0928,-0.84717 3.1249,-2.32571 3.125,-4.46875 -0.1993,-0.94679 -0.2813,-1.56306 -0.2813,-1.8125 0.1,-1.24566 0.1562,-1.9693 0.1563,-2.21875 l -0.1563,-0.3125 0.1563,0 c -1e-4,-0.42358 -0.057,-0.81333 -0.1563,-1.1875 0.1,-0.39848 0.1562,-0.789 0.1563,-1.1875 l 0,-0.625 -0.1563,-0.28125 c 0.1992,10e-6 0.2812,-0.11324 0.2813,-0.3125 l 0,-1.1875 c -1e-4,-1.61905 -1.0322,-2.82108 -3.125,-3.59375 l -0.4688,0 c -1.4198,2e-5 -2.7039,0.19528 -3.875,0.59375 0.1,-2.5666 0.1563,-3.98851 0.1563,-4.3125 -0.2001,-1.29584 -0.5644,-1.96873 -1.0625,-1.96875 l 0,-0.125 c 0.5984,2e-5 0.9062,-0.30773 0.9062,-0.90625 0.5977,2e-5 1.4093,0.0559 2.4063,0.15625 l 0.2812,0 2.0938,-0.625 c 0.4235,2e-5 0.9832,0.0566 1.6562,0.15625 0.1992,2e-5 0.2812,-0.082 0.2813,-0.28125 l 0,-0.3125 c -1e-4,-0.19922 -0.1387,-0.28122 -0.4375,-0.28125 l 0,-0.46875 c -1e-4,-0.39923 -0.1379,-0.59372 -0.4375,-0.59375 l -0.3125,0 c -0.1742,3e-5 -0.2562,0.11252 -0.2813,0.3125 l 0.125,0.75 -2.375,0 0,-0.3125 1.3438,0 c 0.2988,-0.14979 0.4374,-0.28842 0.4375,-0.4375 l 0,-0.15625 -0.1563,-0.3125 c -0.05,3e-5 -0.6918,0.0566 -1.9375,0.15625 -0.6981,3e-5 -1.7861,-0.0566 -3.2812,-0.15625 z m 38.625,0 c -1.0959,0.2989 -1.6563,0.60665 -1.6563,0.90625 0,0.39852 0.057,0.78903 0.1563,1.1875 l -0.1563,0.75 c 0,0.29889 0.057,0.66403 0.1563,1.0625 l -0.1563,0.59375 c 0.2243,2.06853 0.4196,3.21318 0.5938,3.4375 -0.3985,1.49512 -0.5938,2.7784 -0.5938,3.875 l 0,0.46875 c 0,0.57342 0.057,1.35369 0.1563,2.375 -0.1,0.17492 -0.1563,0.36942 -0.1563,0.59375 0.2243,2.66625 0.4196,4.11942 0.5938,4.34375 0,0.0996 -0.057,0.23826 -0.1563,0.4375 l 0.1563,0.3125 c -0.1993,0.59774 -0.3946,0.90626 -0.5938,0.90625 0,2.4921 0.1386,3.96988 0.4375,4.46875 0,0.49812 1.7617,0.75 5.25,0.75 2.4921,-0.59774 3.7187,-2.1329 3.7188,-4.625 l -0.2813,-1.5 c 0,-0.32396 0.057,-1.16086 0.1563,-2.53125 l -0.1563,-0.3125 0.1563,0 c -1e-4,-0.42358 -0.057,-0.81333 -0.1563,-1.1875 0.1,-0.39848 0.1562,-0.789 0.1563,-1.1875 l 0,-0.625 -0.1563,-0.28125 c 0.1992,10e-6 0.2812,-0.11324 0.2813,-0.3125 l 0,-0.75 c -1e-4,-1.32094 -0.4472,-2.29571 -1.3438,-2.96875 0.797,-1.6449 1.2187,-2.65168 1.2188,-3 -0.1499,-4.0868 -0.5716,-6.12497 -1.2188,-6.125 l 0.1563,-0.3125 0,-0.15625 c -1e-4,-0.14979 -0.3898,-0.34429 -1.1875,-0.59375 l -2.0938,0.15625 c -0.3491,-0.0996 -0.5443,-0.15622 -0.5937,-0.15625 l -0.3125,0.15625 -2.375,-0.15625 z m 38.375,0 c -0.8967,0.37418 -1.3438,0.68193 -1.3438,0.90625 0,0.39852 0.057,0.78903 0.1563,1.1875 l -0.1563,0.75 c 0,0.29889 0.057,0.66403 0.1563,1.0625 l -0.1563,0.59375 c 0.1992,1.12097 0.3125,1.90124 0.3125,2.375 l 0,0.46875 0.2813,0.4375 c -0.3985,1.61984 -0.5938,3.01638 -0.5938,4.1875 l 0,0.15625 0.1563,0.28125 -0.1563,0 c 0,0.67304 0.057,1.2893 0.1563,1.8125 0,0.0753 -0.057,0.38305 -0.1563,0.90625 0.2243,2.76588 0.4196,4.24442 0.5938,4.46875 0,0.0996 -0.057,0.23826 -0.1563,0.4375 l 0.1563,0.3125 c -0.1248,0.44869 -0.32,0.69981 -0.5938,0.75 0,3.3887 0.2519,5.09375 0.75,5.09375 l 0.75,0 c 0.2996,0 0.5507,-3.79985 0.75,-11.375 -0.1993,-3.2153 -0.3125,-5.00159 -0.3125,-5.375 0.1,-2.19321 0.1563,-3.64637 0.1563,-4.34375 -0.2997,-1.09659 -0.6641,-1.65623 -1.0625,-1.65625 l 0,-0.125 c 0.5984,2e-5 0.9062,-0.30849 0.9062,-0.90625 0.5977,2e-5 1.4093,0.0566 2.4063,0.15625 l 0.2812,0 2.0938,-0.625 c 0.4235,2e-5 0.9832,0.0566 1.6562,0.15625 0.1992,2e-5 0.3125,-0.082 0.3125,-0.28125 l 0,-0.3125 c 0,-0.19922 -0.1699,-0.28122 -0.4687,-0.28125 l 0,-0.46875 c -1e-4,-0.39923 -0.1379,-0.59372 -0.4375,-0.59375 l -0.3125,0 c -0.1742,3e-5 -0.2562,0.11252 -0.2813,0.3125 l 0.125,0.75 -2.375,0 0,-0.3125 1.3438,0 c 0.2988,-0.14979 0.4374,-0.28842 0.4375,-0.4375 l 0,-0.15625 -0.125,-0.3125 c -0.05,3e-5 -0.7231,0.0566 -1.9688,0.15625 -0.6981,3e-5 -1.7861,-0.0566 -3.2812,-0.15625 z m 40.625,0 c -0.2495,0.20003 -0.5014,0.31253 -0.75,0.3125 l 0,2.53125 c -1e-4,5.08383 -0.7796,10.16696 -2.375,15.25 l 0.1562,0.59375 c -0.2745,10e-6 -0.6955,1.11928 -1.2187,3.3125 0,0.0502 0.057,0.69184 0.1562,1.9375 l -0.2812,0.4375 -1.5,-0.15625 c -0.324,0.12472 -0.6325,0.5711 -0.9063,1.34375 0.1,1.49511 0.1563,2.55851 0.1563,3.15625 l -0.1563,2.09375 0.3125,0.15625 0.125,0 c 0.2989,-0.14906 0.4688,-0.31894 0.4688,-0.46875 l 0,-1.34375 0.2812,0 0,2.40625 -0.75,-0.15625 c -0.1741,0 -0.2562,0.11325 -0.2812,0.3125 l 0,0.28125 c 0,0.0494 0.082,0.21931 0.2812,0.46875 l 0.75,-0.15625 c 0,0.39849 0.1132,0.59374 0.3125,0.59375 l 0.2813,0 0.3125,-0.15625 c -0.1,-0.87228 -0.1563,-1.37605 -0.1563,-1.5 0,-0.27454 0.1953,-1.05405 0.5938,-2.375 l 0,-0.3125 c 0,-0.47302 -0.082,-1.25329 -0.2813,-2.375 0.2243,0 0.4196,-0.0566 0.5938,-0.15625 0,0.0996 0.9501,0.23825 2.8437,0.4375 0.8723,-0.0996 1.4007,-0.15625 1.625,-0.15625 1.994,0.0996 3.1132,0.15625 3.3125,0.15625 l 0.875,-0.4375 c 0.1,0 0.5206,0.0566 1.2188,0.15625 -0.1993,0.39849 -0.3692,1.17876 -0.4688,2.375 l 0.75,3.15625 c -0.1742,0 -0.2562,0.25188 -0.2812,0.75 l 0,0.125 0.125,0.3125 c 1.1962,-0.32397 1.8124,-0.63248 1.8125,-0.90625 l 0,-0.28125 c -1e-4,-0.19925 -0.1953,-0.3125 -0.5938,-0.3125 0.049,-0.20001 0.3013,-0.39451 0.75,-0.59375 l -0.1562,-1.8125 c 0.1,-1.84341 0.1562,-2.98882 0.1562,-3.4375 0,-0.47378 -0.3078,-0.92016 -0.9062,-1.34375 -0.3484,0 -0.7955,0.0566 -1.3438,0.15625 -0.1749,-0.0996 -0.3702,-0.15625 -0.5937,-0.15625 l 0,-0.59375 -0.3125,-1.34375 0.3125,-0.15625 c -0.2001,-0.74755 -0.3126,-1.44581 -0.3125,-2.09375 l 0,-0.71875 -0.4375,-0.75 c 0.2988,-0.77188 0.5499,-1.91729 0.75,-3.4375 -0.1004,-0.34905 -0.1563,-0.5748 -0.1563,-0.625 l 0.1563,-1.03125 c -0.2001,-0.97188 -0.3126,-1.53152 -0.3125,-1.65625 l 0.3125,-0.15625 c -0.2001,-0.99697 -0.3126,-1.9725 -0.3125,-2.96875 l 0,-0.75 c -0.1993,-0.72244 -0.2813,-1.11295 -0.2813,-1.1875 l 0,-0.46875 c 0,-0.29961 0.1945,-0.74599 0.5938,-1.34375 -1e-4,-3.08981 -0.3078,-4.62497 -0.9063,-4.625 l -0.4375,0 c -0.7978,3e-5 -1.6913,-0.11247 -2.6875,-0.3125 0,0.10041 -0.056,0.15628 -0.1562,0.15625 -1e-4,-0.10036 -0.057,-0.15622 -0.1563,-0.15625 l -0.9062,0 z m 35.3437,0 c -0.1247,3e-5 -0.3766,0.30778 -0.75,0.90625 0,0.57267 0.057,0.90656 0.1563,1.03125 -0.1,0.54833 -0.1563,1.02596 -0.1563,1.375 l 0,0.71875 c 0,0.19927 0.082,1.14942 0.2813,2.84375 l 0,0.15625 -0.125,0.75 c 0.1,2e-5 0.125,0.0566 0.125,0.15625 -0.1993,2.01833 -0.2813,3.35824 -0.2813,4.03125 0,0.0996 0.057,0.23827 0.1563,0.4375 -0.1,10e-6 -0.1563,0.0566 -0.1563,0.15625 l 0,1.9375 c 0.1992,2.41758 0.2813,3.78873 0.2813,4.0625 l 0,1.1875 c 0,0.14906 -0.082,0.92933 -0.2813,2.375 l 0,1.21875 c 0,0.34906 0.057,0.79545 0.1563,1.34375 -0.1,0.12472 -0.1563,0.45785 -0.1563,1.03125 0.124,0.32397 0.5145,0.63248 1.1875,0.90625 0.5734,0 1.8313,-0.0566 3.75,-0.15625 0.8723,0.0996 1.4007,0.15625 1.625,0.15625 0.2487,-0.39849 0.4439,-0.59375 0.5938,-0.59375 -1e-4,0.29887 0.1132,0.4375 0.3125,0.4375 l 0.3125,0 c 0.1999,-0.0251 0.4764,-0.5281 0.875,-1.5 -1e-4,-0.0996 -0.057,-0.23825 -0.1563,-0.4375 l -1.3437,0.15625 c -0.2989,0 -1.2178,-0.19526 -2.8125,-0.59375 -0.4487,0 -1.2603,0.082 -2.4063,0.28125 l 0.3125,-10.625 -0.1562,-0.71875 c 0.1,10e-6 0.1562,-0.22649 0.1562,-0.625 l 0,-0.4375 c 0.8221,2e-5 1.6024,-0.0566 2.375,-0.15625 0.2494,2e-5 0.9477,0.11327 2.0938,0.3125 l 0.75,-0.3125 c 0.6479,2e-5 1.0942,-0.33311 1.3437,-1.03125 l 0,-0.59375 -0.1562,-0.3125 c -0.1,2e-5 -0.4894,0.11327 -1.1875,0.3125 l -1.5,0 -3.125,-0.46875 c -0.1742,0.0996 -0.4261,0.15627 -0.75,0.15625 l 0,-1.5 c 0,-0.42357 0.057,-0.81408 0.1562,-1.1875 -0.1993,-1.29584 -0.3125,-2.88687 -0.3125,-4.78125 0.5977,2e-5 1.4093,0.0566 2.4063,0.15625 l 0.2812,0 2.0938,-0.625 c 0.4235,3e-5 0.9832,0.0566 1.6562,0.15625 0.1992,3e-5 0.2812,-0.082 0.2813,-0.28125 l 0,-0.3125 c -1e-4,-0.19922 -0.1387,-0.28122 -0.4375,-0.28125 l 0,-0.46875 c -1e-4,-0.39923 -0.1379,-0.59372 -0.4375,-0.59375 l -0.3125,0 c -0.1742,3e-5 -0.2875,0.11328 -0.3125,0.3125 l 0.1562,0.75 -2.375,0 0,-0.3125 1.3438,0 c 0.2988,-0.14979 0.4374,-0.28766 0.4375,-0.4375 l 0,-0.15625 -0.1563,-0.3125 c -0.2243,3e-5 -0.7527,0.0566 -1.625,0.15625 -0.5483,3e-5 -1.9448,-0.0566 -4.1875,-0.15625 z m 41.6563,0 c -0.4236,0.4989 -0.6748,0.75003 -0.75,0.75 -1e-4,0.52324 0.057,0.97038 0.1562,1.34375 -0.1,0.52324 -0.1563,1.02624 -0.1562,1.5 l 0,0.59375 c 0.1992,1.4457 0.3124,2.25722 0.3125,2.40625 l 0,1.625 c -0.124,2e-5 -0.5712,-0.47174 -1.3438,-1.46875 -1.2213,-2.21754 -2.284,-3.86596 -3.1562,-4.9375 -0.324,-0.99696 -0.909,-1.49997 -1.7813,-1.5 l -0.9062,0.59375 c 1.4951,2.31721 2.6143,4.16089 3.3125,5.53125 0.7718,0.77267 1.7474,2.28246 2.9687,4.5 l -1.3437,2.6875 c -1.5203,3.76287 -2.3572,5.74442 -2.5313,5.96875 l -2.8437,5.53125 0,0.3125 c 0,0.54831 0.2518,0.93806 0.75,1.1875 l 0.3125,0 c 0.8722,-0.9217 2.0169,-2.95988 3.4375,-6.125 1.7939,-3.43889 2.6874,-5.33843 2.6875,-5.6875 l 0.125,0 c 0.1992,1.86927 0.3124,3.07055 0.3125,3.59375 l 0,1.78125 c -0.1993,0.9719 -0.3126,1.53154 -0.3125,1.65625 l 0,1.03125 0.1562,0.3125 -0.1562,0 c -1e-4,0.39926 0.057,0.78901 0.1562,1.1875 -0.1,0.54831 -0.1563,0.93882 -0.1562,1.1875 -1e-4,0.49888 0.503,0.86325 1.5,1.0625 0.1992,0 0.3944,-0.30851 0.5937,-0.90625 0,-0.24944 -0.025,-0.63919 -0.125,-1.1875 l 0.2813,-9.5625 0.1562,0 c 0,0.47379 0.8108,2.14683 2.4063,5.0625 1.8433,3.9872 3.0141,6.19526 3.5625,6.59375 l 0.4687,0 c 0.149,0 0.3443,-0.25188 0.5938,-0.75 l 0,-0.4375 c -0.9971,-2.54152 -2.0031,-4.55508 -3,-6 -0.9218,-2.74152 -2.1492,-5.55921 -3.7188,-8.5 l 6.2813,-9.875 c -0.175,-0.37413 -0.4827,-0.62525 -0.9063,-0.75 l -0.9062,0.15625 c -0.6982,1.12173 -1.3398,2.0145 -1.9375,2.6875 -0.4989,1.27079 -1.5616,2.86258 -3.1563,4.78125 0,-0.0996 0.057,-0.23823 0.1563,-0.4375 -0.1993,-2.14301 -0.2813,-3.53955 -0.2813,-4.1875 l 0.125,-1.5 c -0.1,-1.19621 -0.2383,-1.81247 -0.4375,-1.8125 l -0.9062,0 z m 37.2812,0 c -2.0928,0.8472 -3.125,2.49486 -3.125,4.9375 l 0,0.46875 c 0.2494,0.39851 0.4447,0.59377 0.5938,0.59375 l 1.0312,0 c 0.1992,-0.0494 0.3945,-0.3013 0.5938,-0.75 0.3239,-1.39546 1.1354,-2.09373 2.4062,-2.09375 0.4487,0.19927 0.6998,0.39453 0.75,0.59375 l 0.875,-0.15625 0.3125,0.15625 -0.1562,0.75 c -1e-4,0.87229 0.057,1.62643 0.1562,2.25 -0.1,0.47304 -0.1563,1.11468 -0.1562,1.9375 l 0,0.59375 c -0.3986,2e-5 -0.5938,0.2519 -0.5938,0.75 -1.2213,0.54832 -1.9196,1.07671 -2.0937,1.625 l 0,0.625 c 0,0.22436 0.057,0.41885 0.1562,0.59375 1.146,0.64718 2.0396,1.28958 2.6875,1.9375 l -0.1562,0.75 0,0.59375 c -1e-4,0.19926 0.1698,0.31251 0.4687,0.3125 0,0.0753 -0.1699,0.46505 -0.4687,1.1875 -1e-4,0.24945 0.3643,0.63996 1.0625,1.1875 -1e-4,0.12473 -0.2512,0.31922 -0.75,0.59375 -1e-4,2.89059 -0.8682,4.34375 -2.5625,4.34375 l -0.4375,0 c -1.0221,-1.04642 -1.6072,-1.74468 -1.7813,-2.09375 l 0.2813,-0.4375 0,-0.3125 c -0.324,-1.19547 -0.6579,-1.78124 -1.0313,-1.78125 l -0.1562,0 c -0.6974,0.32397 -1.0313,0.77111 -1.0313,1.34375 l 0,0.59375 c 0,0.89737 0.1386,1.73351 0.4375,2.53125 0.6981,1.79398 1.7861,2.6875 3.2813,2.6875 l 0.3125,0 c 3.0898,-0.44868 4.6249,-1.61871 4.625,-3.5625 l 0,-1.5 -0.1563,-0.3125 c 0.1,10e-6 0.1562,-0.0566 0.1563,-0.15625 l 0,-2.96875 -0.1563,-0.3125 c 0.1,10e-6 0.1562,-0.0566 0.1563,-0.15625 l 0,-0.125 c -1e-4,-0.42358 -0.1133,-0.84458 -0.3125,-1.21875 0.1992,10e-6 0.3124,-0.25187 0.3125,-0.75 l 0,-0.75 c -0.2244,-1.49509 -0.8094,-2.21874 -1.7813,-2.21875 1.2213,-1.42056 1.9196,-2.54059 2.0938,-3.3125 -0.1993,-1.99396 -0.3126,-3.86225 -0.3125,-5.65625 l 0,-0.46875 c -0.648,-1.89433 -2.0445,-2.84372 -4.1875,-2.84375 l -1.3438,0 z m 35.8438,0 c -0.124,3e-5 -0.3759,0.30778 -0.75,0.90625 0,0.57267 0.057,0.90656 0.1562,1.03125 -0.1,0.54833 -0.1562,1.02596 -0.1562,1.375 l 0,0.71875 c 0,0.19927 0.1132,1.14942 0.3125,2.84375 l 0,0.15625 -0.1563,0.75 c 0.1,2e-5 0.1563,0.0566 0.1563,0.15625 -0.1993,2.01833 -0.3125,3.35824 -0.3125,4.03125 0,0.0996 0.057,0.23827 0.1562,0.4375 -0.1,10e-6 -0.1562,0.0566 -0.1562,0.15625 l 0,1.9375 c 0,0.52322 0.1132,1.7245 0.3125,3.59375 l -0.1563,0.90625 c 0.1,0.17492 0.1563,0.42604 0.1563,0.75 0,0.14906 -0.1133,0.92933 -0.3125,2.375 l 0,1.21875 c 0,0.34906 0.057,0.79545 0.1562,1.34375 -0.1,0.12472 -0.1562,0.45861 -0.1562,1.03125 l 0,0.15625 c 0.3741,0.59774 0.8205,0.90625 1.3437,0.90625 0.4981,0 0.75,-2.40331 0.75,-7.1875 0,-0.72321 0.5596,-1.81123 1.6563,-3.28125 0.8722,-1.96887 1.8477,-3.75516 2.9687,-5.375 l 0.1563,0 c -1e-4,0.87229 0.057,1.59593 0.1562,2.21875 -0.1,0.69813 -0.1563,1.11914 -0.1562,1.21875 0.1,2.61682 0.2121,4.20862 0.3125,4.78125 l -0.1563,0.75 c 0.1004,1.96813 0.1562,3.25141 0.1563,3.875 l 0.1562,0.3125 -0.1562,0 c -1e-4,1.3202 0.1952,2.21372 0.5937,2.6875 0.5483,0 0.9954,-0.30851 1.3438,-0.90625 l 0,-0.15625 c -1e-4,-0.57264 -0.057,-0.90653 -0.1563,-1.03125 l 0.1563,-1.0625 c -1e-4,-2.06774 -0.1133,-3.60291 -0.3125,-4.625 0.1,10e-6 0.2128,-1.53516 0.3125,-4.625 -1e-4,-1.24565 -0.057,-3.76146 -0.1563,-7.5 0.1,-1.76886 0.1562,-3.24739 0.1563,-4.46875 -0.1,-0.19922 -0.1563,-0.3691 -0.1563,-0.46875 0.1,3e-5 0.1562,-0.13861 0.1563,-0.4375 l 0,-0.59375 c -0.3735,-0.59847 -0.6253,-0.90622 -0.75,-0.90625 l -0.75,0 c -0.2244,3e-5 -0.363,0.30778 -0.4375,0.90625 l 0,1.65625 c -1e-4,0.8472 -0.056,2.18711 -0.1563,4.03125 -0.6974,0.99701 -2.2325,3.67682 -4.625,8.0625 l -0.1562,0 c 0,-0.82207 -0.057,-1.26921 -0.1563,-1.34375 0.1,-0.34905 0.1563,-0.54354 0.1563,-0.59375 0,-0.84716 -0.057,-2.43895 -0.1563,-4.78125 0,-0.0745 0.057,-0.38226 0.1563,-0.90625 -0.1993,-0.67224 -0.3125,-2.45929 -0.3125,-5.375 l 0,-1.1875 c -0.1499,-0.29884 -0.2885,-0.46872 -0.4375,-0.46875 l -0.75,0 z m 38.1562,0 c -0.1247,3e-5 -0.3766,0.30778 -0.75,0.90625 0,0.57267 0.057,0.90656 0.1563,1.03125 -0.1,0.54833 -0.1563,1.02596 -0.1563,1.375 l 0,0.71875 c 0,0.19927 0.1132,1.14942 0.3125,2.84375 l 0,0.15625 -0.1562,0.75 c 0.1,2e-5 0.1562,0.0566 0.1562,0.15625 -0.1993,2.01833 -0.3125,3.35824 -0.3125,4.03125 0,0.0996 0.057,0.23827 0.1563,0.4375 -0.1,10e-6 -0.1563,0.0566 -0.1563,0.15625 l 0,1.9375 c 0.1992,2.41758 0.3125,3.78873 0.3125,4.0625 l 0,1.1875 c 0,0.14906 -0.1133,0.92933 -0.3125,2.375 l 0,1.21875 c 0,0.34906 0.057,0.79545 0.1563,1.34375 -0.1,0.12472 -0.1563,0.45785 -0.1563,1.03125 0.3985,0.59774 0.9023,0.90625 1.5,0.90625 0.1992,0 0.3937,-0.30851 0.5938,-0.90625 0,-0.24944 -0.025,-0.63919 -0.125,-1.1875 0.1,-4.5606 0.1816,-7.71804 0.2812,-9.4375 l 0.1563,0 c 0,0.29964 0.1386,0.72065 0.4375,1.21875 2.8411,5.83137 4.684,9.26608 5.5312,10.3125 l 0.3125,0 c 0.4981,-0.24944 0.75,-0.63919 0.75,-1.1875 -1.1461,-2.84039 -2.1528,-4.79732 -3,-5.84375 -1.4708,-4.08681 -2.6974,-6.96112 -3.7187,-8.65625 l 6.2812,-9.875 c 0,-0.0996 -0.2519,-0.35072 -0.75,-0.75 -0.075,3e-5 -0.383,0.0566 -0.9062,0.15625 -0.1491,3e-5 -0.8474,0.89279 -2.0938,2.6875 -0.7225,1.61985 -1.7859,3.21164 -3.1562,4.78125 0,-0.22432 0.057,-0.41958 0.1562,-0.59375 -0.1993,-1.74452 -0.2812,-3.14106 -0.2812,-4.1875 0,-0.34904 0.025,-0.79542 0.125,-1.34375 -0.1,-1.19621 -0.2376,-1.81247 -0.4375,-1.8125 l -0.9063,0 z m -302.7812,0.90625 0.1562,0 0,0.3125 -0.4375,0 c 0,-0.17412 0.082,-0.28738 0.2813,-0.3125 z m 77.0312,0 0.125,0 0,0.3125 -0.4375,0 c 0,-0.17412 0.1132,-0.28738 0.3125,-0.3125 z m 76.5313,0 0.1562,0 0,0.3125 -0.4375,0 c 0,-0.17488 0.082,-0.28814 0.2813,-0.3125 z m -112.5313,1.1875 0.125,0.75 0,3.28125 c 0,0.64795 -0.1386,1.15096 -0.4375,1.5 0,1.19625 -1.3399,1.81252 -4.0312,1.8125 -0.1,2e-5 -0.4082,-0.19524 -0.9063,-0.59375 0.1,-1.49585 0.1563,-2.61512 0.1563,-3.3125 l 0,-0.125 c 0,-0.64791 -0.2512,-1.26417 -0.75,-1.8125 l 0.9062,-1.1875 c 0.2487,2e-5 1.0856,0.0813 2.5313,0.28125 -1e-4,-0.14979 0.3085,-0.28766 0.9062,-0.4375 0,0.0996 0.057,0.15627 0.1563,0.15625 l 0.125,0 c 0.6981,-0.19922 1.1191,-0.31248 1.2187,-0.3125 z m 75.4063,0 0.75,0.15625 0.3125,0 0.3125,-0.15625 c -0.1,3.93779 -0.2688,7.29049 -0.4688,10.03125 l 0.4688,4.9375 c -0.1,0.69737 -0.2122,2.03728 -0.3125,4.03125 -1e-4,0.62284 0.2511,1.18324 0.75,1.65625 -0.3491,0.67303 -0.7389,1.11941 -1.1875,1.34375 l -1.3438,0 c -0.6981,0 -1.8174,0.0254 -3.3125,0.125 l 0,-1.03125 c 0,-0.87227 0.421,-2.51993 1.2188,-4.9375 -0.1004,-0.5483 -0.1563,-0.99544 -0.1563,-1.34375 0.3993,10e-6 0.5937,-0.11248 0.5938,-0.3125 l 0,-0.4375 -0.4375,-0.75 c 0.5726,10e-6 0.9065,-0.38974 1.0312,-1.1875 0,-0.24866 -0.057,-0.63918 -0.1562,-1.1875 0.2988,10e-6 0.4941,-0.69825 0.5937,-2.09375 l 0,-0.15625 -0.125,-0.3125 c 0.997,-1.94377 1.4687,-4.73608 1.4688,-8.375 z m -154.8125,3.3125 c 0.149,2e-5 0.2876,0.19528 0.4375,0.59375 -0.3491,-0.0996 -0.5444,-0.15623 -0.5938,-0.15625 l 0,-0.15625 0.1563,-0.28125 z m 0.1562,2.53125 0.1563,0 c 0.3984,0.92172 0.5937,1.45011 0.5937,1.625 l 0,0.15625 c -0.8966,-0.54829 -1.3438,-0.88142 -1.3437,-1.03125 0.2737,-0.4981 0.469,-0.74998 0.5937,-0.75 z m -0.5937,1.625 0.125,0 c 0.4479,2e-5 1.0641,1.12005 1.8125,3.3125 -0.1004,0.17492 -0.1563,0.36942 -0.1563,0.59375 0,0.19926 0.1125,0.28126 0.3125,0.28125 0,0.14907 -0.1125,0.57083 -0.3125,1.21875 0,0.20002 0.1125,0.28126 0.3125,0.28125 0,0.0996 -0.057,0.26952 -0.1562,0.46875 l 0.5937,2.21875 c 0,0.0745 -0.1133,0.55217 -0.3125,1.375 l -0.75,-0.15625 -1.0312,0 c -0.3491,10e-6 -0.7955,-0.0566 -1.3438,-0.15625 0,-0.22433 0.2511,-1.73412 0.75,-4.5 -0.1004,10e-6 -0.2695,-0.27725 -0.4687,-0.875 0.4988,-0.47377 0.7499,-1.22866 0.75,-2.25 l 0,-1.5 -0.125,-0.3125 z m 38.9687,1.96875 0.75,0 c 1.4951,0.89738 2.25,3.32607 2.25,7.3125 l 0,1.0625 c 0,0.44869 -0.2519,2.04048 -0.75,4.78125 l -0.4375,0 c -2.9902,-0.52321 -4.5,-1.33473 -4.5,-2.40625 0,-1.09661 0.1132,-3.83305 0.3125,-8.21875 l -0.1562,-1.03125 c 1.1711,-0.99698 2.008,-1.49998 2.5312,-1.5 z m 38.4688,0 c 1.8935,2e-5 2.8437,2.37208 2.8437,7.15625 l 0,0.90625 c 0,0.82209 -0.2519,2.52713 -0.75,5.09375 l -1.0312,0 c -2.591,-0.5483 -3.9063,-1.41645 -3.9063,-2.5625 0,-0.69812 0.1132,-3.37793 0.3125,-8.0625 0,-0.0745 -0.057,-0.38303 -0.1562,-0.90625 1.146,-1.0966 2.0395,-1.62498 2.6875,-1.625 z m 70.0625,16.875 0.2812,0 0,0.46875 -0.2812,0 0,-0.46875 z"
           id="flowRoot5454" />
      </g>
    </g>
  </g>
</svg>
